<svg
  aria-hidden="true"
  fill="currentColor"
  role="img"
  version="1.1"
  viewBox="0 0 16 16"
  xmlns="http://www.w3.org/2000/svg"
>
  <path
    d="M 7.9993334,0.19739163 C 3.5822165,0.19739163 1.1366667e-6,3.7791003 1.1366667e-6,8.1977106 1.1366667e-6,11.731798 2.2920495,14.730552 5.4710575,15.788934 c 0.4002613,0.07332 0.5461235,-0.173859 0.5461235,-0.386042 0,-0.19011 -0.0068,-0.692976 -0.010847,-1.360403 -2.2252565,0.48325 -2.6947658,-1.072593 -2.6947658,-1.072593 -0.363918,-0.924284 -0.8884326,-1.170331 -0.8884326,-1.170331 -0.7263632,-0.496026 0.055003,-0.486199 0.055003,-0.486199 0.8029785,0.05631 1.2253403,0.82458 1.2253403,0.82458 0.7135943,1.222375 1.8726324,0.869254 2.3283904,0.664479 0.072684,-0.516662 0.2794471,-0.869292 0.5078157,-1.069153 -1.776374,-0.202205 -3.6440962,-0.888454 -3.6440962,-3.9539932 0,-0.8737138 0.3118603,-1.587289 0.823606,-2.1466972 -0.082512,-0.2022048 -0.3570435,-1.0156352 0.078573,-2.117179 0,0 0.6713583,-0.2150552 2.1997173,0.8196665 0.6379634,-0.1772599 1.3225817,-0.2657009 2.0027799,-0.2691025 0.6797083,0.0028 1.3638353,0.091843 2.0027795,0.2691025 1.527377,-1.0347973 2.197753,-0.8196665 2.197753,-0.8196665 0.436605,1.1015438 0.16207,1.9148608 0.08005,2.117179 0.512727,0.5594082 0.822132,1.2729834 0.822132,2.1466972 0,3.0734002 -1.870669,3.7496712 -3.6524452,3.9476052 0.2868134,0.247181 0.5426864,0.735194 0.5426864,1.481689 0,1.069191 -0.0099,1.932058 -0.0099,2.194319 0,0.213922 0.1443898,0.463144 0.5500518,0.385059 3.176552,-1.060347 5.466634,-4.056645 5.466634,-7.5902404 0,-4.4186103 -3.582214,-8.00031897 -8.0008039,-8.00031897"
  />
</svg>
